<?xml version="1.0" standalone="no"?>
<!DOCTYPE svg PUBLIC "-//W3C//DTD SVG 20010904//EN"
 "http://www.w3.org/TR/2001/REC-SVG-20010904/DTD/svg10.dtd">
<svg version="1.0" xmlns="http://www.w3.org/2000/svg"
 width="819.000000pt" height="280.000000pt" viewBox="0 0 819.000000 280.000000"
 preserveAspectRatio="xMidYMid meet">

<g transform="translate(0.000000,280.000000) scale(0.100000,-0.100000)"
fill="#000000" stroke="none">
<path d="M7196 2665 c-8 -8 -20 -15 -26 -15 -6 0 -10 -6 -7 -12 2 -7 9 -12 15
-11 5 1 26 3 46 5 30 2 36 6 36 25 0 18 -6 23 -24 23 -14 0 -31 -7 -40 -15z"/>
<path d="M2100 2570 c11 -7 7 -10 -17 -10 -17 0 -38 -7 -47 -15 -8 -8 -19 -15
-25 -15 -6 0 -11 -4 -11 -10 0 -5 -6 -10 -13 -10 -8 0 -20 -11 -27 -25 -7 -14
-17 -25 -22 -25 -4 0 -8 -9 -8 -21 0 -11 -4 -17 -10 -14 -5 3 -10 -3 -10 -14
0 -11 -4 -23 -10 -26 -24 -15 -4 -215 22 -215 4 0 8 -7 8 -16 0 -21 54 -74 75
-74 9 0 13 -4 10 -10 -11 -17 233 -13 251 4 15 15 18 53 8 80 -8 22 -29 -1
-38 -41 -7 -29 -12 -32 -56 -38 -51 -7 -110 1 -110 15 0 4 -9 10 -21 13 -11 3
-23 15 -26 26 -3 11 -9 18 -14 15 -8 -4 -12 17 -8 42 0 4 -5 10 -12 14 -16 10
-16 233 0 238 6 2 11 11 11 20 1 22 24 52 39 52 7 0 10 4 7 9 -9 13 42 22 108
20 39 -2 56 -7 56 -16 0 -7 4 -13 9 -13 5 0 12 -11 15 -25 4 -16 13 -25 26
-25 17 0 20 7 20 50 0 48 -1 50 -27 51 -25 0 -26 1 -8 9 13 6 -11 9 -70 9 -62
1 -85 -2 -75 -9z"/>
<path d="M2560 2560 c0 -15 7 -20 25 -20 l25 0 0 -230 c0 -243 1 -238 -42
-231 -5 0 -8 -3 -8 -9 0 -6 39 -10 98 -9 82 0 93 2 72 12 -50 23 -50 23 -50
245 l0 210 29 10 c16 6 32 7 36 4 4 -4 6 2 3 13 -3 18 -12 20 -96 23 -87 3
-92 2 -92 -18z"/>
<path d="M3190 2570 c0 -5 -8 -10 -19 -10 -10 0 -24 -7 -31 -15 -7 -8 -17 -15
-22 -15 -15 0 -68 -60 -68 -76 0 -8 -4 -14 -10 -14 -5 0 -10 -11 -10 -25 0
-14 -4 -25 -10 -25 -6 0 -10 -38 -10 -95 0 -57 4 -95 10 -95 6 0 10 -9 10 -20
0 -11 5 -20 10 -20 6 0 10 -6 10 -13 0 -7 18 -29 40 -50 22 -20 40 -31 40 -24
0 9 3 8 9 -1 5 -9 23 -12 52 -10 43 4 43 4 14 12 -16 5 -47 27 -67 49 l-38 40
0 149 c0 92 4 148 10 148 6 0 10 6 10 13 1 23 36 55 68 62 18 3 30 11 26 16
-3 5 13 9 35 9 22 0 42 -4 46 -9 3 -5 19 -12 35 -16 20 -4 30 -13 30 -24 0
-10 9 -26 20 -36 20 -18 20 -17 20 31 0 28 -5 55 -12 62 -15 15 -198 17 -198
2z"/>
<path d="M3905 2570 c3 -5 1 -10 -4 -10 -6 0 -11 -7 -11 -15 0 -8 -4 -15 -10
-15 -5 0 -10 -11 -10 -25 0 -14 -4 -25 -10 -25 -5 0 -10 -16 -10 -35 0 -19 -4
-35 -10 -35 -5 0 -10 -8 -10 -17 0 -10 -7 -31 -15 -47 -8 -15 -15 -37 -15 -47
0 -11 -4 -19 -10 -19 -5 0 -10 -18 -10 -40 0 -22 -4 -40 -10 -40 -5 0 -10 -11
-10 -24 0 -14 -7 -31 -15 -40 -8 -8 -15 -23 -15 -34 0 -10 -10 -24 -22 -30
-19 -9 -11 -11 45 -11 38 -1 67 3 67 9 0 6 -4 10 -10 10 -5 0 -10 22 -10 49 0
58 5 61 128 61 75 0 82 -2 82 -20 0 -11 5 -20 10 -20 6 0 10 -15 10 -33 0 -25
-6 -37 -22 -45 -19 -9 -7 -11 60 -11 48 -1 82 3 82 9 0 6 -7 10 -16 10 -8 0
-12 5 -9 10 3 6 2 10 -4 10 -6 0 -13 11 -17 25 -3 14 -10 25 -15 25 -5 0 -9
18 -9 40 0 22 -4 48 -8 58 -5 9 -16 32 -25 50 -9 19 -17 47 -17 63 0 18 -4 28
-10 24 -6 -4 -10 10 -10 34 0 23 -4 41 -10 41 -5 0 -12 16 -16 35 -3 19 -10
35 -15 35 -5 0 -9 5 -9 11 0 16 -26 39 -45 39 -9 0 -13 -4 -10 -10z m35 -155
c0 -20 4 -34 9 -30 6 3 13 -15 17 -40 3 -25 10 -48 15 -51 5 -3 9 -21 9 -40
l0 -34 -79 0 c-71 0 -80 2 -86 20 -4 11 0 29 9 42 9 12 16 33 16 45 0 13 5 23
10 23 6 0 10 20 10 45 0 25 5 45 10 45 6 0 10 8 10 18 0 29 12 34 32 12 10
-11 18 -34 18 -55z"/>
<path d="M4410 2560 c0 -11 5 -21 10 -21 6 -1 16 -2 23 -3 9 -1 13 -51 15
-206 1 -113 0 -214 -2 -226 -3 -11 -16 -26 -28 -32 -19 -9 -5 -11 70 -11 55
-1 92 3 92 9 0 6 -7 10 -16 10 -33 0 -44 26 -44 109 0 47 4 82 10 82 6 1 17 2
25 2 69 0 75 -3 75 -28 0 -14 6 -25 13 -25 14 0 37 -45 37 -72 0 -10 6 -18 13
-18 8 0 7 -4 -3 -10 -8 -5 -10 -10 -4 -10 6 0 17 -11 24 -25 12 -23 19 -25 74
-24 57 1 59 1 33 13 -15 7 -24 15 -21 19 4 4 0 7 -9 7 -12 0 -17 8 -17 26 0
14 -3 23 -8 20 -4 -2 -16 13 -26 35 -11 21 -23 39 -28 39 -4 0 -8 7 -8 15 0 8
-4 15 -10 15 -5 0 -10 16 -10 35 0 24 5 35 15 35 19 0 55 31 55 47 0 7 5 13
10 13 6 0 10 27 10 61 0 59 -13 89 -40 89 -6 0 -8 5 -5 10 4 6 -7 13 -24 16
-17 4 -31 10 -31 15 0 5 -61 9 -135 9 -128 0 -135 -1 -135 -20z m241 -17 c23
-11 39 -25 39 -35 0 -10 5 -18 10 -18 6 0 10 -22 10 -50 0 -33 -4 -50 -12 -50
-9 0 -8 -4 2 -10 10 -6 11 -10 3 -10 -7 0 -13 -5 -13 -11 0 -24 -33 -42 -82
-45 -79 -4 -78 -5 -78 112 0 63 4 104 10 104 6 0 10 7 10 15 0 21 54 20 101
-2z"/>
<path d="M5104 2564 c3 -9 6 -20 6 -25 0 -6 4 -8 9 -5 5 3 11 -4 15 -17 8 -29
8 -401 0 -421 -3 -9 -15 -16 -25 -16 -10 0 -19 -4 -19 -10 0 -6 37 -10 90 -10
50 0 90 4 90 8 0 4 -9 8 -20 9 -39 3 -50 27 -50 108 0 58 3 77 15 81 8 4 15
15 15 26 0 11 -7 26 -15 34 -11 12 -15 39 -15 108 0 77 3 96 18 109 19 18 82
24 82 8 0 -5 13 -11 30 -14 21 -5 31 -14 36 -32 3 -14 10 -25 15 -25 5 0 9
-23 9 -51 0 -32 -4 -48 -10 -44 -6 4 -10 3 -9 -2 4 -24 -3 -43 -16 -43 -8 0
-15 -4 -15 -10 0 -5 -8 -10 -17 -10 -9 0 -25 -8 -36 -17 -11 -10 -17 -12 -13
-5 5 8 0 12 -13 12 -14 0 -21 -6 -21 -20 0 -15 7 -20 26 -20 23 0 54 -20 54
-35 0 -4 7 -13 15 -22 8 -8 13 -19 9 -24 -3 -5 2 -16 10 -25 9 -8 16 -25 16
-37 0 -18 2 -19 10 -7 7 11 10 5 10 -22 l0 -38 60 0 c33 0 60 4 60 10 0 6 -5
10 -11 10 -11 0 -39 25 -39 35 0 6 -10 19 -37 50 -7 7 -13 21 -13 29 0 16 -17
41 -55 79 -11 11 -15 17 -8 13 7 -3 14 2 18 14 4 12 15 20 27 20 12 0 18 3 15
7 -4 3 0 11 8 17 9 6 17 22 20 36 3 14 9 26 15 28 12 4 13 72 1 72 -5 0 -12
11 -15 24 -3 14 -15 28 -26 31 -11 3 -20 11 -20 16 0 5 -12 9 -26 9 -14 0 -23
4 -19 10 4 6 -39 10 -120 10 -112 0 -126 -2 -121 -16z"/>
<path d="M5770 2560 c0 -18 10 -25 33 -21 4 0 7 -102 7 -229 l0 -230 -25 0
c-14 0 -25 -5 -25 -10 0 -7 63 -10 183 -8 l182 3 0 39 c0 43 -23 62 -32 28 -3
-11 -12 -23 -20 -26 -8 -3 -11 -10 -8 -16 4 -6 -28 -10 -90 -10 l-96 0 3 113
c2 83 6 111 16 110 6 -2 12 2 12 7 0 15 90 13 90 -2 0 -7 9 -24 20 -38 l20
-25 0 73 c0 39 -3 72 -6 72 -10 0 -34 -28 -34 -39 0 -7 -24 -11 -60 -11 l-60
0 0 98 0 99 69 2 c71 2 124 -6 117 -18 -8 -12 11 -34 22 -27 13 8 5 60 -10 65
-6 2 -5 7 3 12 8 5 -53 9 -148 9 -156 0 -163 -1 -163 -20z"/>
<path d="M6404 2568 c3 -22 17 -39 27 -33 5 4 9 -85 9 -224 0 -224 -1 -231
-20 -231 -11 0 -20 -4 -20 -10 0 -6 37 -10 93 -9 77 1 88 3 65 12 -19 7 -28
18 -28 34 0 13 -5 23 -11 23 -8 0 -7 5 2 16 10 13 10 17 -2 25 -10 7 -11 11
-2 17 6 4 11 21 11 38 -1 41 6 51 34 48 13 -1 33 -3 46 -3 15 -1 22 -7 22 -20
0 -11 3 -21 8 -23 10 -4 48 -80 44 -90 -1 -4 2 -8 8 -8 6 0 10 -9 10 -21 0
-36 25 -50 82 -47 42 3 49 5 33 13 -26 12 -45 31 -45 44 0 6 -4 11 -10 11 -5
0 -12 11 -16 25 -3 14 -10 25 -15 25 -5 0 -9 9 -9 20 0 11 -4 20 -10 20 -5 0
-10 5 -10 12 0 6 -7 19 -16 29 -20 22 -10 59 17 59 10 0 19 4 19 8 0 5 8 17
18 28 20 23 24 36 29 89 3 32 -1 45 -21 67 -14 15 -26 33 -26 39 0 7 -3 10 -6
6 -4 -3 -19 0 -35 8 -37 20 -278 22 -275 3z m226 -16 c0 -5 11 -14 25 -20 14
-6 25 -18 25 -27 0 -8 4 -15 8 -15 5 0 10 -25 11 -56 1 -37 -1 -54 -8 -49 -7
4 -11 -4 -11 -19 0 -17 -6 -26 -16 -26 -8 0 -13 -4 -9 -9 8 -14 -57 -24 -94
-16 -19 4 -31 13 -32 23 -4 58 5 199 13 210 12 13 88 17 88 4z"/>
<path d="M7075 2572 c-14 -14 -3 -32 20 -32 19 0 25 -5 25 -21 0 -11 5 -17 10
-14 6 3 10 2 10 -4 0 -5 -4 -13 -10 -16 -6 -4 -10 -83 -10 -206 l0 -199 -25 0
c-14 0 -25 -4 -25 -10 0 -6 39 -10 98 -9 82 0 93 2 72 12 -50 23 -50 23 -50
246 0 123 4 211 9 211 15 0 42 31 35 41 -6 10 -149 11 -159 1z m62 -454 c-3
-8 -6 -5 -6 6 -1 11 2 17 5 13 3 -3 4 -12 1 -19z"/>
<path d="M7704 2555 c-3 -14 -10 -25 -15 -25 -5 0 -9 -14 -9 -31 0 -17 -4 -28
-10 -24 -6 4 -10 -8 -10 -29 0 -19 -4 -38 -10 -41 -5 -3 -10 -14 -10 -23 0 -9
-7 -30 -15 -46 -8 -15 -15 -37 -15 -47 0 -11 -4 -19 -10 -19 -5 0 -10 -16 -10
-35 0 -19 -4 -35 -9 -35 -5 0 -12 -15 -16 -32 -11 -54 -28 -86 -50 -94 -13 -5
1 -9 44 -11 66 -4 86 2 61 17 -17 10 -17 90 0 100 6 4 38 6 71 5 32 0 59 3 59
7 0 5 8 5 18 0 9 -5 23 -7 29 -5 7 3 16 -4 20 -14 4 -10 13 -24 20 -32 11 -10
10 -48 -1 -57 0 -1 -10 -6 -21 -12 -16 -9 0 -11 75 -11 84 1 92 2 67 13 -15 7
-24 15 -21 19 4 4 0 7 -9 7 -13 0 -17 9 -17 35 0 19 -4 35 -10 35 -5 0 -10 15
-10 34 0 19 -3 36 -7 38 -11 4 -43 101 -43 127 0 11 -4 21 -10 21 -5 0 -10 15
-10 34 0 19 -4 36 -9 38 -6 2 -12 15 -15 30 -2 14 -11 37 -20 50 -9 14 -13 28
-9 31 3 4 -8 7 -25 7 -25 0 -33 -5 -38 -25z m26 -66 c0 -5 5 -7 10 -4 6 4 10
-10 10 -34 0 -23 4 -41 9 -41 5 0 11 -22 15 -50 4 -27 11 -52 16 -55 11 -7 13
-45 4 -69 -9 -23 -126 -23 -148 0 -18 17 -21 34 -6 34 5 0 13 18 16 40 4 22
10 40 15 40 5 0 9 20 9 45 0 25 5 45 10 45 6 0 10 11 10 23 0 13 3 27 7 30 10
10 23 8 23 -4z"/>
<path d="M490 2501 c0 -5 -11 -12 -25 -15 -14 -4 -25 -11 -25 -16 0 -6 -7 -10
-15 -10 -8 0 -15 -4 -15 -10 0 -6 -34 -10 -82 -10 -76 0 -85 -3 -113 -28 -53
-47 -63 -72 -58 -137 2 -33 7 -333 11 -666 8 -659 3 -609 65 -671 l28 -28 692
2 692 3 3 159 c2 121 -1 161 -10 168 -7 4 -158 8 -336 8 -267 0 -326 3 -338
14 -11 11 -14 47 -14 155 l0 141 -25 0 -25 0 0 -154 0 -155 -147 -3 c-106 -2
-148 -6 -151 -15 -2 -7 -10 -13 -18 -13 -8 0 -14 -4 -14 -9 0 -5 -9 -13 -20
-16 -11 -3 -20 -13 -20 -21 0 -35 -26 -44 -127 -44 -58 0 -110 5 -126 13 l-27
12 0 378 0 377 161 0 c178 0 188 -3 189 -62 0 -16 5 -28 10 -28 6 0 10 -7 10
-15 0 -8 7 -15 15 -15 8 0 15 -4 15 -10 0 -5 16 -10 35 -10 19 0 35 5 35 10 0
6 9 10 20 10 11 0 20 6 20 14 0 8 5 16 11 18 5 2 13 22 16 46 l6 42 53 0 54 0
0 -60 c0 -57 1 -60 25 -60 l25 0 0 202 c0 111 3 198 7 194 11 -11 30 96 21
116 -4 9 -8 26 -8 37 0 12 -4 21 -10 21 -5 0 -10 5 -10 11 0 6 -13 24 -29 40
-28 28 -34 29 -116 29 -78 0 -88 2 -111 25 -14 14 -31 25 -39 25 -8 0 -15 5
-15 10 0 6 -32 10 -75 10 -41 0 -75 -4 -75 -9z m189 -111 l44 -49 31 17 c17 9
32 20 34 25 5 10 72 9 72 -2 0 -5 9 -13 20 -16 11 -3 20 -12 20 -19 0 -8 6
-18 13 -24 16 -14 20 -58 7 -83 -9 -15 -22 -19 -70 -19 -33 0 -60 -4 -60 -10
0 -5 -5 -10 -11 -10 -6 0 -18 -8 -27 -17 -14 -13 -18 -44 -22 -167 -3 -83 -9
-157 -13 -163 -13 -20 -43 -15 -55 10 -7 13 -13 83 -14 167 -3 142 -3 145 -25
148 -22 3 -23 1 -23 -77 0 -62 -4 -85 -17 -101 -20 -23 -53 -27 -53 -5 0 8 -4
15 -10 15 -6 0 -10 29 -10 66 0 73 -22 124 -53 124 -10 0 -15 5 -12 10 4 6
-34 10 -107 10 l-113 0 -12 38 c-7 22 -8 38 -2 40 5 2 9 11 9 19 0 9 13 29 30
44 39 38 85 39 123 3 l27 -25 40 40 c22 22 40 45 40 51 0 6 30 10 78 10 l77 0
44 -50z m-230 -271 c16 -46 14 -105 -5 -124 -13 -13 -35 -16 -105 -14 l-89 2
0 83 0 84 94 0 94 0 11 -31z m451 -48 c0 -84 -4 -91 -55 -91 -50 0 -55 8 -55
81 0 42 4 69 11 69 5 0 7 5 4 10 -4 6 13 10 44 10 l51 0 0 -79z m-138 -968
c-4 -63 -17 -93 -41 -93 -6 0 -10 -6 -8 -12 1 -9 -13 -13 -45 -13 -27 0 -48 4
-47 8 0 5 -10 17 -22 28 -14 12 -22 31 -22 49 0 37 22 80 40 80 8 0 11 5 8 10
-4 6 21 10 67 10 l73 0 -3 -67z m188 58 c0 -5 -4 -12 -9 -15 -13 -8 -24 -81
-16 -106 4 -11 11 -18 16 -15 5 4 9 -5 9 -19 0 -25 -2 -26 -70 -26 -56 0 -70
3 -70 15 0 8 5 15 10 15 6 0 10 26 10 59 0 48 4 63 20 74 11 8 18 16 15 19 -2
2 16 5 40 7 25 1 45 -3 45 -8z m350 -56 c0 -60 -3 -68 -30 -95 -34 -33 -90
-42 -90 -15 0 8 5 15 11 15 5 0 7 5 4 10 -3 6 -1 10 6 10 13 0 7 88 -7 99 -5
3 -10 14 -12 24 -2 15 6 17 58 17 l60 0 0 -65z m140 55 c0 -5 -4 -10 -10 -10
-13 0 -13 -53 1 -67 5 -5 9 -30 7 -54 l-3 -44 -42 -1 c-30 -1 -43 3 -43 12 0
8 5 14 10 14 6 0 10 28 10 65 0 39 5 72 13 80 14 16 57 20 57 5z m140 -85 c0
-95 0 -95 -25 -95 -14 0 -25 5 -25 11 0 5 -4 7 -10 4 -5 -3 -10 3 -10 15 0 12
4 19 9 16 11 -7 24 56 15 78 -3 9 -10 13 -15 10 -5 -3 -9 4 -9 16 0 12 5 18
10 15 6 -3 10 1 10 9 0 10 9 16 25 16 25 0 25 0 25 -95z m-470 64 c0 -6 7 -18
16 -26 19 -19 13 -66 -12 -90 -20 -21 -77 -21 -98 0 -19 19 -21 79 -4 107 10
15 24 20 55 20 24 0 43 -5 43 -11z m-719 -77 l106 -3 10 -34 c6 -19 8 -36 5
-39 -11 -12 -238 -6 -250 6 -7 7 -12 30 -12 51 0 34 2 38 18 31 9 -5 65 -10
123 -12z"/>
<path d="M3303 2283 c-23 -8 -14 -33 12 -33 31 0 45 -26 45 -87 0 -51 -21 -82
-58 -84 -9 0 -26 -4 -37 -9 -14 -6 2 -9 50 -9 49 -1 65 2 55 9 -12 8 -9 10 12
10 33 0 39 16 35 94 -1 45 2 60 16 70 25 19 22 23 -25 30 -24 3 -54 7 -68 9
-14 2 -31 2 -37 0z"/>
<path d="M1140 2090 c0 -5 -7 -10 -15 -10 -11 0 -15 -12 -15 -46 0 -27 6 -51
15 -60 8 -9 15 -23 15 -33 0 -25 46 -68 81 -76 16 -4 29 -11 29 -16 0 -5 46
-9 101 -9 125 0 139 -10 139 -100 0 -43 4 -59 16 -64 26 -10 54 12 54 42 0 33
-31 122 -42 122 -4 0 -8 5 -8 11 0 6 -6 16 -13 22 -33 30 -61 37 -157 37 -97
0 -100 1 -130 30 -26 25 -30 37 -30 80 0 31 -6 57 -14 66 -17 16 -26 18 -26 4z"/>
<path d="M1938 1962 c-21 -2 -38 -7 -38 -13 0 -5 6 -9 13 -9 7 0 21 -19 32
-41 32 -67 39 -79 47 -79 5 0 8 -11 8 -25 0 -14 4 -25 10 -25 5 0 12 -11 16
-25 3 -14 10 -25 15 -25 5 0 9 -9 9 -20 0 -11 5 -20 10 -20 6 0 10 -9 10 -19
0 -11 4 -22 9 -25 13 -8 13 -127 0 -143 -6 -7 -20 -13 -30 -13 -11 0 -19 -4
-19 -10 0 -13 140 -13 160 0 12 8 11 10 -7 10 -22 0 -23 3 -23 95 0 69 5 105
18 132 9 21 20 40 25 41 4 2 7 15 7 28 0 13 5 24 10 24 6 0 10 9 10 20 0 11 4
20 8 20 4 0 16 23 27 50 15 40 24 50 42 50 42 0 24 17 -24 23 -84 9 -153 -13
-83 -26 22 -5 30 -12 30 -27 0 -12 -4 -18 -10 -15 -6 4 -10 -5 -10 -19 0 -14
-4 -26 -10 -26 -5 0 -10 -8 -10 -17 0 -10 -13 -44 -29 -75 l-28 -57 -22 22
c-11 13 -21 29 -21 35 0 7 -4 12 -10 12 -5 0 -10 12 -10 26 0 14 -4 23 -10 19
-6 -4 -10 6 -10 23 0 16 -7 35 -15 42 -8 7 -15 23 -15 36 0 15 6 24 15 24 8 0
15 4 15 9 0 10 -59 17 -112 13z"/>
<path d="M497 1805 c-22 -16 -19 -48 6 -53 9 -2 24 3 32 12 17 16 21 41 5 31
-5 -3 -10 1 -10 9 0 19 -9 20 -33 1z"/>
<path d="M1058 1736 c-13 -9 -18 -27 -18 -60 0 -25 4 -46 9 -46 5 0 12 -11 15
-25 4 -14 11 -25 16 -25 6 0 10 -9 10 -20 0 -13 9 -22 25 -26 14 -3 25 -10 25
-15 0 -5 87 -9 195 -9 121 0 195 -4 195 -10 0 -5 11 -12 25 -16 19 -5 25 -13
25 -35 0 -16 5 -29 10 -29 6 0 10 -22 10 -50 0 -47 2 -50 25 -50 25 0 25 1 25
80 0 47 -4 80 -10 80 -5 0 -10 5 -10 11 0 11 -25 39 -35 39 -4 0 -13 7 -21 15
-13 12 -50 15 -205 15 -119 0 -189 4 -189 10 0 6 -7 10 -15 10 -34 0 -55 38
-55 99 0 44 -4 60 -16 65 -19 7 -15 8 -36 -8z"/>
<path d="M900 1675 c0 -20 5 -25 25 -25 20 0 25 5 25 25 0 20 -5 25 -25 25
-20 0 -25 -5 -25 -25z"/>
<path d="M410 1660 c0 -5 -9 -10 -21 -10 -36 0 -49 -24 -49 -89 0 -66 21 -101
59 -101 11 0 22 -6 24 -12 4 -10 6 -10 6 0 1 6 14 12 29 12 46 0 72 36 72 101
0 56 -20 89 -55 89 -8 0 -15 5 -15 10 0 6 -11 10 -25 10 -14 0 -25 -4 -25 -10z
m53 -77 c20 -23 19 -35 -4 -51 -25 -17 -69 -5 -69 20 0 43 44 62 73 31z"/>
<path d="M672 1504 c-31 -32 -39 -85 -18 -107 9 -8 16 -18 16 -22 0 -4 6 -13
14 -21 33 -32 126 -1 126 42 0 14 4 23 8 20 4 -2 9 6 10 20 1 13 -3 24 -8 24
-6 0 -10 8 -10 18 0 52 -97 70 -138 26z m88 -69 c0 -20 -5 -25 -25 -25 -20 0
-25 5 -25 25 0 20 5 25 25 25 20 0 25 -5 25 -25z"/>
<path d="M503 1353 c-8 -21 5 -43 27 -43 15 0 20 7 20 29 0 24 -4 29 -21 28
-12 -1 -24 -7 -26 -14z"/>
<path d="M7305 1350 c-3 -5 -14 -10 -23 -10 -21 0 -49 -39 -30 -41 26 -3 53 3
59 13 3 5 9 9 13 8 4 -1 17 1 29 4 21 6 21 6 -7 21 -34 18 -33 18 -41 5z"/>
<path d="M2080 1240 c-50 -7 -14 -20 56 -20 36 0 54 -4 54 -12 0 -9 4 -8 10 2
8 13 10 12 10 -3 0 -10 5 -15 10 -12 6 3 10 -4 10 -17 0 -32 15 -52 34 -45 12
5 16 20 16 57 l0 50 -37 1 c-21 1 -58 2 -83 2 -25 1 -61 0 -80 -3z"/>
<path d="M2577 1242 c-25 -5 -21 -19 8 -26 l25 -6 0 -220 c0 -187 -2 -220 -15
-220 -9 0 -12 -6 -8 -17 5 -12 2 -15 -10 -10 -9 3 -17 3 -17 -2 0 -5 10 -11
23 -14 28 -7 316 -7 334 0 8 3 13 22 13 49 0 37 -3 44 -20 44 -11 0 -20 -5
-20 -11 0 -14 -26 -39 -40 -39 -6 0 -8 -4 -5 -10 4 -6 -6 -10 -22 -10 -22 0
-25 2 -13 10 12 7 8 10 -15 10 -23 0 -27 -3 -15 -10 9 -6 10 -10 3 -10 -6 0
-15 5 -18 10 -3 6 -18 10 -33 10 -21 0 -24 -2 -12 -10 8 -5 10 -10 4 -10 -6 0
-18 8 -27 18 -13 14 -17 38 -17 101 0 97 9 111 73 111 36 0 46 -4 57 -25 20
-37 30 -21 30 46 0 64 -9 74 -30 34 -12 -22 -20 -25 -67 -25 -34 0 -52 4 -48
10 3 6 1 10 -4 10 -17 0 -14 158 3 176 10 9 36 14 77 14 53 0 65 -3 85 -26 13
-14 24 -29 24 -35 0 -5 7 -9 15 -9 8 0 15 9 15 20 0 21 -20 70 -29 71 -22 2
-291 3 -304 1z"/>
<path d="M3217 1242 c-24 -5 -21 -22 3 -22 19 0 20 -7 21 -222 0 -134 4 -215
9 -203 7 16 9 17 9 3 1 -9 -12 -28 -29 -41 -37 -32 -26 -37 78 -35 52 1 72 5
72 15 0 7 -7 13 -15 13 -8 0 -15 5 -15 10 0 6 -9 10 -20 10 -18 0 -20 7 -20
81 0 91 10 109 60 109 31 0 60 -19 60 -39 0 -6 4 -11 9 -11 5 0 14 -15 21 -32
6 -18 19 -48 27 -66 9 -18 16 -39 16 -47 0 -8 4 -12 9 -9 4 3 8 -2 8 -10 0 -9
6 -17 13 -17 86 -8 103 -4 84 22 -7 8 -20 18 -30 22 -9 4 -20 15 -24 24 -4 10
-13 24 -20 31 -7 8 -11 18 -8 23 4 5 1 9 -4 9 -6 0 -11 11 -11 25 0 14 -6 25
-13 25 -8 0 -20 11 -27 25 -13 24 -11 28 18 54 17 16 33 26 36 23 3 -3 6 4 6
14 0 11 4 24 9 30 6 5 13 27 16 49 7 49 -21 108 -54 113 -12 2 -19 8 -16 13 4
5 -4 9 -17 10 -102 3 -248 3 -261 1z m255 -54 c24 -28 28 -40 28 -95 0 -50 -3
-63 -16 -63 -8 0 -12 -4 -9 -10 3 -5 0 -10 -8 -10 -8 0 -17 -7 -21 -15 -7 -20
-102 -21 -122 -1 -19 19 -20 206 -1 206 8 0 7 4 -3 10 -10 7 6 10 54 10 65 0
71 -2 98 -32z m-215 -65 c-2 -16 -4 -3 -4 27 0 30 2 43 4 28 2 -16 2 -40 0
-55z m0 -130 c-3 -10 -5 -4 -5 12 0 17 2 24 5 18 2 -7 2 -21 0 -30z"/>
<path d="M3854 1238 c-6 -10 20 -38 36 -38 6 0 8 -5 5 -10 -4 -6 0 -22 9 -35
9 -13 16 -36 16 -50 0 -14 5 -25 10 -25 6 0 10 -16 10 -35 0 -19 5 -35 10 -35
6 0 10 -11 10 -24 0 -13 7 -29 15 -36 8 -7 15 -25 15 -41 0 -16 5 -39 12 -52
26 -50 30 -61 34 -85 6 -32 22 -52 40 -52 17 0 46 29 39 41 -4 5 -2 9 3 9 5 0
12 12 15 28 14 67 19 88 27 107 4 11 16 46 26 78 10 31 22 57 26 57 4 0 8 23
8 50 0 28 5 50 10 50 6 0 10 12 10 26 0 26 20 54 39 54 6 0 11 6 11 13 0 17
-132 16 -138 -1 -2 -7 3 -12 11 -12 23 0 36 -38 25 -70 -16 -44 -38 -125 -38
-141 0 -11 -4 -19 -10 -19 -5 0 -10 -22 -10 -50 0 -27 -4 -50 -10 -50 -5 0
-10 -9 -10 -19 0 -11 -3 -26 -6 -35 -9 -24 -44 3 -44 34 0 14 -7 38 -15 54 -8
15 -15 41 -15 57 0 16 -4 29 -10 29 -5 0 -10 20 -10 45 0 25 -4 45 -9 45 -5 0
-13 15 -16 33 -4 17 -13 36 -19 40 -7 5 1 18 24 37 l34 30 -54 2 c-30 0 -68 2
-83 2 -16 1 -31 -2 -33 -6z"/>
<path d="M4568 1242 c-25 -5 -22 -16 7 -32 l25 -13 0 -214 c0 -183 -2 -213
-15 -213 -8 0 -15 -7 -15 -15 0 -8 -6 -15 -12 -15 -9 0 -8 -3 2 -9 8 -6 87
-10 177 -10 l163 -1 0 26 c0 14 4 23 10 19 6 -4 10 7 10 24 0 39 -30 43 -50 6
-7 -14 -19 -25 -26 -25 -7 0 -14 -5 -16 -11 -3 -9 -9 -9 -25 0 -27 14 -95 15
-73 1 12 -8 9 -10 -12 -10 -16 0 -28 5 -28 10 0 6 -7 10 -15 10 -12 0 -15 18
-15 105 l0 105 25 1 c85 4 100 3 101 -8 1 -7 2 -17 3 -23 0 -5 10 -10 21 -10
18 0 20 7 20 60 0 66 -8 73 -38 35 -17 -21 -28 -25 -70 -25 -60 0 -62 4 -62
105 0 106 -1 105 87 105 80 0 103 -11 103 -49 0 -12 6 -21 16 -21 12 0 14 10
12 47 l-3 48 -145 0 c-80 0 -153 -1 -162 -3z"/>
<path d="M5397 1242 c-33 -2 -55 -7 -52 -13 4 -5 -3 -9 -14 -9 -12 0 -21 -4
-21 -10 0 -5 -5 -10 -11 -10 -24 0 -99 -95 -99 -125 0 -8 -4 -15 -10 -15 -6 0
-10 -37 -10 -90 0 -53 4 -90 10 -90 6 0 10 -9 10 -19 0 -11 7 -26 15 -35 8 -8
15 -17 15 -21 0 -13 37 -40 103 -73 32 -16 184 -13 195 5 4 5 15 12 25 16 23
9 25 87 2 87 -9 0 -18 -13 -22 -31 -3 -17 -13 -33 -22 -37 -9 -3 -20 -11 -24
-19 -11 -18 -101 -17 -121 2 -8 8 -22 15 -30 15 -9 0 -16 5 -16 11 0 6 -6 17
-12 24 -31 35 -36 44 -42 86 -15 96 -18 162 -7 168 5 4 11 26 12 49 2 23 7 42
12 42 12 0 37 26 37 39 0 6 9 11 20 11 11 0 20 5 20 10 0 14 91 12 123 -2 15
-7 27 -21 27 -31 0 -20 22 -47 38 -47 17 0 25 78 10 93 -16 16 -81 24 -161 19z"/>
<path d="M5860 1235 c0 -6 9 -17 20 -25 19 -14 20 -26 20 -225 0 -199 -1 -211
-20 -225 -11 -8 -20 -20 -20 -28 0 -10 34 -13 162 -11 89 0 167 3 175 6 19 8
18 93 -2 93 -8 0 -15 -5 -15 -11 0 -14 -26 -39 -40 -39 -6 0 -8 -4 -5 -10 3
-5 -1 -10 -9 -10 -9 0 -16 5 -16 10 0 6 -10 10 -22 10 -19 0 -20 -2 -8 -10 11
-7 1 -10 -36 -10 -32 0 -56 5 -63 14 -8 9 -11 48 -9 112 3 95 4 98 28 104 43
12 90 0 90 -21 0 -12 7 -19 19 -19 13 0 20 9 23 30 3 17 1 33 -3 35 -4 3 -5
13 -2 24 8 30 -26 35 -37 6 -9 -22 -15 -25 -65 -25 l-56 0 3 103 3 102 83 3
c50 2 81 -1 78 -7 -3 -5 1 -11 9 -15 8 -3 15 -15 15 -26 0 -11 6 -20 14 -20
11 0 13 10 9 43 -3 23 -7 43 -8 45 -1 1 -73 4 -159 5 -102 1 -156 -2 -156 -8z"/>
<path d="M6490 1237 c0 -12 26 -37 38 -37 7 0 10 -79 10 -211 0 -171 -3 -211
-14 -216 -8 -3 -14 -12 -14 -20 0 -8 -4 -11 -10 -8 -5 3 -10 2 -10 -4 0 -16
30 -21 103 -17 62 3 109 16 59 16 -13 0 -22 6 -22 15 0 8 -7 15 -15 15 -22 0
-22 152 1 174 17 17 89 23 79 6 -3 -6 0 -12 7 -15 8 -3 23 -26 33 -50 11 -25
23 -45 28 -45 4 0 7 -8 7 -17 0 -30 23 -80 42 -92 12 -8 35 -10 63 -6 42 7 43
7 24 26 -10 10 -22 19 -25 19 -13 0 -34 30 -34 49 0 12 -4 21 -10 21 -5 0 -12
11 -16 25 -3 14 -10 25 -15 25 -5 0 -9 7 -9 16 0 8 -4 13 -9 10 -5 -4 -12 8
-16 25 -5 24 -2 35 14 50 11 10 25 19 31 19 6 0 8 5 5 10 -3 6 1 10 9 10 13 0
16 14 16 78 -1 75 -13 112 -38 112 -6 0 -12 5 -14 11 -4 12 -298 18 -298 6z
m262 -34 c10 -9 18 -24 18 -35 0 -10 5 -18 10 -18 6 0 10 -20 10 -45 0 -25 -4
-45 -10 -45 -5 0 -10 -9 -10 -20 0 -11 -7 -23 -15 -26 -8 -4 -15 -12 -15 -18
0 -8 -19 -13 -54 -15 -80 -3 -88 9 -85 128 1 53 3 99 6 104 9 15 126 8 145
-10z"/>
<path d="M7188 1243 c-36 -4 -55 -23 -22 -23 39 0 43 -20 46 -239 2 -116 -1
-211 -5 -211 -4 0 -17 -9 -29 -19 l-20 -20 33 -6 c37 -6 147 0 155 8 3 3 -4 8
-15 12 -12 3 -21 11 -21 16 0 5 -7 9 -15 9 -13 0 -15 31 -15 215 0 146 3 215
11 215 12 0 39 25 39 37 0 9 -80 12 -142 6z"/>
<path d="M7794 1242 c-14 -8 -35 -78 -26 -86 3 -3 0 -6 -6 -6 -7 0 -12 -11
-12 -25 0 -14 -4 -25 -9 -25 -5 0 -11 -12 -14 -27 -9 -44 -12 -57 -18 -68 -4
-5 -12 -34 -20 -62 -7 -29 -16 -53 -21 -53 -4 0 -8 -16 -8 -35 0 -19 -4 -35
-10 -35 -5 0 -10 -11 -10 -25 0 -14 -5 -25 -11 -25 -15 0 -43 -30 -35 -37 10
-10 126 -14 126 -5 0 4 -9 18 -20 30 -21 22 -27 62 -10 62 6 0 10 6 10 14 0
23 19 30 95 31 101 3 110 0 125 -46 12 -36 12 -40 -8 -58 -38 -32 -27 -41 46
-40 37 0 76 4 87 9 17 7 17 9 3 9 -10 1 -18 8 -18 16 0 8 -4 15 -10 15 -5 0
-10 11 -10 24 0 13 -7 29 -15 36 -8 7 -15 23 -15 36 0 13 -4 24 -10 24 -5 0
-10 18 -10 41 0 24 -4 38 -10 34 -6 -4 -10 6 -10 22 0 16 -7 38 -15 49 -8 10
-15 29 -15 42 0 12 -4 22 -10 22 -5 0 -10 18 -10 40 0 22 -4 40 -10 40 -5 0
-10 8 -10 18 0 9 -4 22 -8 28 -9 15 -54 25 -68 16z m54 -162 c8 -25 16 -62 19
-82 3 -21 9 -38 14 -38 5 0 9 -14 9 -31 0 -17 -4 -28 -10 -24 -5 3 -10 1 -10
-4 0 -7 -24 -11 -60 -11 -41 0 -60 4 -60 13 0 9 -2 9 -9 -1 -7 -11 -9 -11 -14
1 -7 19 2 57 14 57 5 0 9 23 9 51 0 31 4 48 10 44 6 -4 10 7 10 27 0 19 7 44
16 57 16 22 17 22 33 4 9 -10 22 -38 29 -63z"/>
<path d="M2012 1207 c-49 -46 -82 -83 -82 -94 0 -7 -4 -13 -10 -13 -5 0 -10
-11 -10 -25 0 -14 -4 -25 -10 -25 -6 0 -10 -31 -10 -74 0 -41 5 -78 10 -81 6
-3 10 -16 10 -27 0 -11 10 -29 22 -39 11 -11 18 -19 14 -19 -15 0 45 -51 84
-71 37 -19 52 -21 128 -16 48 4 88 11 90 17 2 5 10 10 18 10 10 0 14 13 14 45
0 25 -3 45 -6 45 -11 0 -34 -29 -34 -42 0 -8 -13 -24 -30 -36 -35 -26 -110
-30 -134 -7 -8 8 -19 15 -26 15 -6 0 -16 11 -22 25 -6 14 -15 25 -20 25 -4 0
-8 9 -8 19 0 11 -5 21 -11 23 -7 2 -11 41 -10 113 1 134 2 145 13 145 4 0 8 6
8 13 0 16 44 67 59 67 6 0 11 5 11 10 0 14 -42 12 -58 -3z"/>
</g>
</svg>
